<svg width="89" height="21" viewBox="0 0 89 21" fill="none" xmlns="http://www.w3.org/2000/svg">
<rect width="89" height="21" rx="10.5" fill="#FFBE1F"/>
<path d="M12.9928 5.25C12.5303 5.25 12.086 5.46887 11.8175 5.81787L9.61776 8.42773C9.45551 8.62048 9.46141 8.90362 9.63241 9.08887L15.6324 15.5889C15.6575 15.6161 15.686 15.6399 15.7159 15.6606C15.7186 15.6625 15.7215 15.6637 15.7242 15.6655C15.7583 15.6882 15.7951 15.7051 15.8336 15.7188C15.8447 15.7227 15.8554 15.7263 15.8668 15.7295C15.91 15.7415 15.9543 15.75 16.0001 15.75C16.0459 15.75 16.0902 15.7415 16.1334 15.7295C16.1448 15.7263 16.1555 15.7227 16.1666 15.7188C16.2051 15.7051 16.2419 15.6882 16.276 15.6655C16.2787 15.6637 16.2816 15.6625 16.2843 15.6606C16.3141 15.64 16.3422 15.6165 16.3673 15.5894L22.3673 9.08936C22.5383 8.90411 22.5447 8.62048 22.3824 8.42773L20.1964 5.83545C19.9141 5.46895 19.4699 5.25 19.0074 5.25H12.9928ZM12.9928 6.25H14.9332L13.2667 8.25H11.0753L12.5963 6.44531C12.6918 6.32131 12.8363 6.25 12.9928 6.25ZM17.067 6.25H19.0074C19.1639 6.25 19.3086 6.32115 19.4181 6.4624L20.9249 8.25H18.7335L17.067 6.25ZM16.0001 6.53076L17.4327 8.25H14.5675L16.0001 6.53076ZM11.1422 9.25H13.1568L14.5963 12.9917L11.1422 9.25ZM14.2276 9.25H17.7726L16.0001 13.8574L14.2276 9.25ZM18.8433 9.25H20.858L17.4039 12.9917L18.8433 9.25Z" fill="white"/>
<path d="M33.208 5.4635H37.3135V6.5135H33.208V5.4635ZM34.4155 5.8835L35.5915 5.957C35.5075 6.776 35.3115 7.462 35.0035 8.015C34.6955 8.568 34.272 9.0195 33.733 9.3695C33.67 9.2995 33.579 9.219 33.46 9.128C33.341 9.03 33.2185 8.9355 33.0925 8.8445C32.9665 8.7535 32.8615 8.6835 32.7775 8.6345C33.3095 8.3755 33.7015 8.0185 33.9535 7.5635C34.2125 7.1015 34.3665 6.5415 34.4155 5.8835ZM36.6625 5.4635H37.8595C37.8595 5.4635 37.8595 5.5195 37.8595 5.6315C37.8595 5.7435 37.856 5.831 37.849 5.894C37.828 6.482 37.8 6.9685 37.765 7.3535C37.73 7.7315 37.6845 8.029 37.6285 8.246C37.5795 8.463 37.513 8.6205 37.429 8.7185C37.331 8.8375 37.2225 8.9215 37.1035 8.9705C36.9915 9.0195 36.8655 9.0545 36.7255 9.0755C36.5925 9.0965 36.421 9.1105 36.211 9.1175C36.008 9.1175 35.7875 9.114 35.5495 9.107C35.5425 8.939 35.511 8.757 35.455 8.561C35.399 8.358 35.329 8.1865 35.245 8.0465C35.427 8.0605 35.595 8.071 35.749 8.078C35.903 8.078 36.0185 8.078 36.0955 8.078C36.2355 8.085 36.337 8.0535 36.4 7.9835C36.449 7.9205 36.4875 7.8085 36.5155 7.6475C36.5435 7.4795 36.568 7.2345 36.589 6.9125C36.617 6.5835 36.6415 6.1565 36.6625 5.6315V5.4635ZM28.7035 6.1565H32.893V7.2485H28.7035V6.1565ZM28.462 8.2145H33.082V9.317H28.462V8.2145ZM30.919 10.4615H32.9455V11.5535H30.919V10.4615ZM30.247 5.0855H31.402V8.792H30.247V5.0855ZM30.436 8.8655H31.5595V13.5275H30.436V8.8655ZM29.7325 10.934C29.8725 11.487 30.051 11.9315 30.268 12.2675C30.492 12.6035 30.765 12.859 31.087 13.034C31.416 13.202 31.7975 13.3175 32.2315 13.3805C32.6655 13.4365 33.159 13.4645 33.712 13.4645C33.845 13.4645 34.027 13.468 34.258 13.475C34.496 13.475 34.7585 13.475 35.0455 13.475C35.3325 13.468 35.63 13.4645 35.938 13.4645C36.253 13.4645 36.561 13.4645 36.862 13.4645C37.163 13.4645 37.436 13.461 37.681 13.454C37.926 13.44 38.129 13.433 38.29 13.433C38.227 13.524 38.164 13.643 38.101 13.79C38.038 13.937 37.9785 14.0875 37.9225 14.2415C37.8735 14.4025 37.835 14.546 37.807 14.672H37.051H33.712C33.012 14.672 32.396 14.6265 31.864 14.5355C31.332 14.4515 30.8735 14.287 30.4885 14.042C30.1035 13.797 29.7745 13.447 29.5015 12.992C29.2355 12.537 29.0115 11.942 28.8295 11.207L29.7325 10.934ZM28.798 9.8525L29.9005 9.926C29.8935 10.591 29.869 11.2315 29.827 11.8475C29.785 12.4635 29.7115 13.034 29.6065 13.559C29.5015 14.077 29.358 14.5355 29.176 14.9345C29.106 14.8785 29.008 14.8155 28.882 14.7455C28.756 14.6755 28.6265 14.6055 28.4935 14.5355C28.3675 14.4725 28.259 14.4235 28.168 14.3885C28.343 14.0385 28.476 13.6255 28.567 13.1495C28.658 12.6735 28.7175 12.1555 28.7455 11.5955C28.7735 11.0355 28.791 10.4545 28.798 9.8525ZM34.6465 10.5245V11.8265H36.358V10.5245H34.6465ZM33.4705 9.506H37.618V12.824H33.4705V9.506ZM44.431 6.2195L45.67 6.272C45.614 7.525 45.516 8.694 45.376 9.779C45.236 10.857 45.019 11.8335 44.725 12.7085C44.438 13.5835 44.0425 14.3395 43.5385 14.9765C43.4755 14.9135 43.374 14.833 43.234 14.735C43.101 14.637 42.961 14.5355 42.814 14.4305C42.667 14.3325 42.541 14.259 42.436 14.21C42.933 13.657 43.318 12.978 43.591 12.173C43.871 11.368 44.0705 10.465 44.1895 9.464C44.3155 8.456 44.396 7.3745 44.431 6.2195ZM43.381 5.726H47.5285V6.902H43.381V5.726ZM46.993 8.4245H48.232V9.506H46.6675L46.993 8.4245ZM47.896 8.4245H48.127L48.3475 8.3825L49.114 8.6765C48.918 9.7195 48.6275 10.647 48.2425 11.459C47.8645 12.271 47.413 12.9675 46.888 13.5485C46.37 14.1295 45.796 14.595 45.166 14.945C45.103 14.854 45.019 14.7455 44.914 14.6195C44.809 14.4935 44.697 14.3745 44.578 14.2625C44.466 14.1505 44.3645 14.063 44.2735 14C44.8895 13.692 45.439 13.2895 45.922 12.7925C46.412 12.2885 46.825 11.6935 47.161 11.0075C47.497 10.3215 47.742 9.5445 47.896 8.6765V8.4245ZM45.397 8.96C45.628 9.674 45.9325 10.353 46.3105 10.997C46.6955 11.634 47.1505 12.2045 47.6755 12.7085C48.2075 13.2055 48.799 13.5975 49.45 13.8845C49.359 13.9615 49.2575 14.0595 49.1455 14.1785C49.0405 14.3045 48.939 14.4305 48.841 14.5565C48.75 14.6825 48.6765 14.798 48.6205 14.903C47.9345 14.546 47.3185 14.0875 46.7725 13.5275C46.2335 12.9675 45.761 12.327 45.355 11.606C44.956 10.878 44.6165 10.0975 44.3365 9.2645L45.397 8.96ZM46.951 5.726H48.232C48.127 6.146 48.015 6.587 47.896 7.049C47.777 7.511 47.658 7.9555 47.539 8.3825C47.42 8.8095 47.308 9.184 47.203 9.506H45.9745C46.0865 9.17 46.202 8.7885 46.321 8.3615C46.44 7.9275 46.5555 7.483 46.6675 7.028C46.7795 6.566 46.874 6.132 46.951 5.726ZM39.811 12.32C39.79 12.243 39.7585 12.138 39.7165 12.005C39.6745 11.872 39.6255 11.7355 39.5695 11.5955C39.5205 11.4485 39.4715 11.326 39.4225 11.228C39.5625 11.2 39.6955 11.1265 39.8215 11.0075C39.9545 10.8885 40.1085 10.731 40.2835 10.535C40.3745 10.437 40.504 10.2795 40.672 10.0625C40.84 9.8385 41.029 9.5725 41.239 9.2645C41.449 8.9565 41.659 8.624 41.869 8.267C42.079 7.91 42.2715 7.5495 42.4465 7.1855L43.465 7.826C43.066 8.54 42.6145 9.2365 42.1105 9.9155C41.6065 10.5945 41.099 11.193 40.588 11.711V11.7425C40.588 11.7425 40.5495 11.7635 40.4725 11.8055C40.3955 11.8475 40.3045 11.9 40.1995 11.963C40.0945 12.019 40.0035 12.0785 39.9265 12.1415C39.8495 12.2045 39.811 12.264 39.811 12.32ZM39.811 12.32L39.6955 11.291L40.189 10.9025L43.171 10.115C43.171 10.276 43.1745 10.4615 43.1815 10.6715C43.1885 10.8745 43.2025 11.0425 43.2235 11.1755C42.5515 11.3715 42.0055 11.5325 41.5855 11.6585C41.1655 11.7845 40.84 11.8895 40.609 11.9735C40.378 12.0505 40.203 12.117 40.084 12.173C39.972 12.222 39.881 12.271 39.811 12.32ZM39.748 9.6635C39.727 9.5795 39.692 9.471 39.643 9.338C39.601 9.198 39.552 9.0545 39.496 8.9075C39.447 8.7535 39.398 8.624 39.349 8.519C39.461 8.491 39.566 8.4245 39.664 8.3195C39.769 8.2075 39.8775 8.0675 39.9895 7.8995C40.0455 7.8085 40.1295 7.6685 40.2415 7.4795C40.3535 7.2905 40.476 7.063 40.609 6.797C40.742 6.524 40.875 6.2335 41.008 5.9255C41.141 5.6175 41.2565 5.313 41.3545 5.012L42.499 5.558C42.324 5.971 42.121 6.3875 41.89 6.8075C41.666 7.2205 41.428 7.6195 41.176 8.0045C40.924 8.3825 40.6685 8.7255 40.4095 9.0335V9.065C40.4095 9.065 40.3745 9.086 40.3045 9.128C40.2415 9.17 40.1645 9.2225 40.0735 9.2855C39.9895 9.3485 39.9125 9.415 39.8425 9.485C39.7795 9.548 39.748 9.6075 39.748 9.6635ZM39.748 9.6635L39.7165 8.7815L40.2205 8.4455L41.9845 8.2985C41.9565 8.4525 41.9285 8.6275 41.9005 8.8235C41.8795 9.0195 41.869 9.184 41.869 9.317C41.47 9.352 41.1445 9.387 40.8925 9.422C40.6405 9.457 40.4375 9.4885 40.2835 9.5165C40.1365 9.5375 40.021 9.562 39.937 9.59C39.86 9.611 39.797 9.6355 39.748 9.6635ZM39.5695 13.2125C39.8705 13.1145 40.2135 12.9955 40.5985 12.8555C40.9905 12.7155 41.4035 12.5615 41.8375 12.3935C42.2785 12.2255 42.716 12.0575 43.15 11.8895L43.402 12.9605C42.793 13.2265 42.1805 13.4925 41.5645 13.7585C40.9485 14.0175 40.385 14.252 39.874 14.462L39.5695 13.2125ZM51.2965 13.391C51.9195 13.37 52.6405 13.349 53.4595 13.328C54.2855 13.3 55.15 13.2685 56.053 13.2335C56.963 13.1985 57.859 13.1635 58.741 13.1285L58.699 14.2835C57.845 14.3325 56.977 14.3745 56.095 14.4095C55.22 14.4515 54.387 14.49 53.596 14.525C52.805 14.567 52.091 14.602 51.454 14.63L51.2965 13.391ZM51.244 10.2725H59.9695V11.4485H51.244V10.2725ZM53.113 8.246H58.0375V9.401H53.113V8.246ZM53.806 11.039L55.2445 11.4275C55.0835 11.7565 54.912 12.0925 54.73 12.4355C54.555 12.7715 54.38 13.0935 54.205 13.4015C54.037 13.7095 53.876 13.9825 53.722 14.2205L52.6195 13.853C52.7595 13.594 52.9065 13.3035 53.0605 12.9815C53.2145 12.6525 53.3545 12.32 53.4805 11.984C53.6135 11.641 53.722 11.326 53.806 11.039ZM56.4205 12.1205L57.523 11.5325C57.838 11.8055 58.1495 12.0995 58.4575 12.4145C58.7655 12.7295 59.049 13.048 59.308 13.37C59.567 13.685 59.777 13.9755 59.938 14.2415L58.762 14.9555C58.622 14.6895 58.4225 14.3885 58.1635 14.0525C57.9115 13.7235 57.6315 13.3875 57.3235 13.0445C57.0225 12.7015 56.7215 12.3935 56.4205 12.1205ZM55.5595 6.3035C55.2795 6.7025 54.919 7.112 54.478 7.532C54.037 7.945 53.547 8.337 53.008 8.708C52.469 9.079 51.909 9.4045 51.328 9.6845C51.286 9.5795 51.2195 9.464 51.1285 9.338C51.0445 9.205 50.9535 9.079 50.8555 8.96C50.7645 8.834 50.6735 8.7255 50.5825 8.6345C51.1845 8.3685 51.762 8.0395 52.315 7.6475C52.868 7.2485 53.3615 6.8285 53.7955 6.3875C54.2365 5.9395 54.5865 5.509 54.8455 5.096H56.1685C56.4485 5.481 56.76 5.845 57.103 6.188C57.446 6.531 57.81 6.846 58.195 7.133C58.58 7.413 58.9755 7.665 59.3815 7.889C59.7945 8.106 60.211 8.2915 60.631 8.4455C60.477 8.5995 60.33 8.7815 60.19 8.9915C60.05 9.2015 59.924 9.401 59.812 9.59C59.287 9.345 58.755 9.044 58.216 8.687C57.677 8.33 57.173 7.945 56.704 7.532C56.242 7.119 55.8605 6.7095 55.5595 6.3035ZM64.672 6.566V7.3745H68.809V6.566H64.672ZM63.349 5.5055H70.216V8.4455H63.349V5.5055ZM65.974 10.7555H67.3495V11.7005C67.3495 11.9245 67.3145 12.1555 67.2445 12.3935C67.1815 12.6315 67.059 12.873 66.877 13.118C66.702 13.356 66.45 13.5905 66.121 13.8215C65.792 14.0455 65.365 14.259 64.84 14.462C64.322 14.672 63.6815 14.8645 62.9185 15.0395C62.8625 14.9415 62.7855 14.8295 62.6875 14.7035C62.5965 14.5775 62.4915 14.4515 62.3725 14.3255C62.2605 14.1995 62.152 14.0945 62.047 14.0105C62.768 13.8775 63.3665 13.734 63.8425 13.58C64.3255 13.426 64.7105 13.2685 64.9975 13.1075C65.2845 12.9395 65.4945 12.775 65.6275 12.614C65.7675 12.446 65.8585 12.285 65.9005 12.131C65.9495 11.97 65.974 11.816 65.974 11.669V10.7555ZM67.108 13.5485L67.717 12.6035C68.004 12.6875 68.3155 12.7855 68.6515 12.8975C68.9945 13.0095 69.3375 13.1285 69.6805 13.2545C70.0305 13.3735 70.3595 13.4925 70.6675 13.6115C70.9755 13.7305 71.2415 13.8425 71.4655 13.9475L70.825 15.0185C70.622 14.9065 70.37 14.7875 70.069 14.6615C69.768 14.5355 69.446 14.406 69.103 14.273C68.76 14.14 68.417 14.0105 68.074 13.8845C67.731 13.7585 67.409 13.6465 67.108 13.5485ZM62.908 9.1175H70.699V12.8345H69.313V10.283H64.2205V12.9815H62.908V9.1175Z" fill="white"/>
</svg>
